<svg data-name="Layer 1" xmlns="http://www.w3.org/2000/svg" width="122" height="64" style=""><rect id="backgroundrect" width="100%" height="100%" x="0" y="0" fill="none" stroke="none"/><defs><style>.cls-1{fill:#e4067e;}.cls-2{fill:#fff;}</style></defs><title>TalTech_nbg</title><g class="currentLayer" style=""><title>Layer 1</title><path class="cls-1" d="M5.219997406005859,19.5 V5.159999847412109 H0 V0 H16.31999969482422 v5.139999866485596 H11.119998931884766 V19.5 z" id="svg_1"/><path class="cls-1" d="M29.619998931884766,19.5 l-0.699999988079071,-2.2799999713897705 h-7 l-0.699999988079071,2.2799999713897705 H14.55999755859375 L21.73999786376953,0 h7.420000076293945 L36.34000015258789,19.5 zm-4.199999809265137,-13.699999809265137 L23.520000457763672,12.079999923706055 h3.859999895095825 z" id="svg_2"/><path class="cls-1" d="M37.380001068115234,19.5 V0 h5.900000095367432 V14.360000610351562 h7.389999866485596 V19.5 z" id="svg_3"/><path class="cls-1" d="M5.219997406005859,41.380001068115234 V27.049999237060547 H0 V21.90999984741211 H16.31999969482422 v5.139999866485596 H11.119998931884766 V41.380001068115234 z" id="svg_4"/><path class="cls-1" d="M18.40999984741211,41.380001068115234 V21.90999984741211 H33.189998626708984 v5.139999866485596 H24.30999755859375 V29 h8.670000076293945 v5.139999866485596 H24.30999755859375 v2.130000114440918 h8.880000114440918 v5.130000114440918 z" id="svg_5"/><path class="cls-1" d="M34.7599983215332,31.65999984741211 c0,-6 4.610000133514404,-10.069999694824219 10.710000038146973,-10.069999694824219 a9.09000015258789,9.09000015258789 0 0 1 8.850000381469727,5.670000076293945 l-5.079999923706055,2.359999895095825 a4.139999866485596,4.139999866485596 0 0 0 -3.7699999809265137,-2.8299999237060547 a4.880000114440918,4.880000114440918 0 0 0 0,9.75 a4.139999866485596,4.139999866485596 0 0 0 3.7699999809265137,-2.8299999237060547 L54.31999588012695,36 a9.1899995803833,9.1899995803833 0 0 1 -8.850000381469727,5.690000057220459 C39.369998931884766,41.72999954223633 34.7599983215332,37.650001525878906 34.7599983215332,31.65999984741211 z" id="svg_6"/><path class="cls-1" d="M69.02000045776367,41.380001068115234 V33.939998626708984 h-7 v7.440000057220459 h-5.900000095367432 V21.90999984741211 h5.900000095367432 V28.799999237060547 h7 V21.90999984741211 h5.900000095367432 V41.380001068115234 z" id="svg_7"/><path class="cls-2" d="M1.0499992370605469,63.269996643066406 V43.79999923706055 H15.819999694824219 v5.139999866485596 H6.950000762939453 v1.9299999475479126 H15.619998931884766 V56 H6.950000762939453 v2.140000104904175 H15.819999694824219 v5.130000114440918 z" id="svg_8"/><path class="cls-2" d="M17.73999786376953,58.400001525878906 V54 h7 V58.400001525878906 z" id="svg_9"/><path class="cls-2" d="M25.70999526977539,60.529998779296875 l3.069999933242798,-4.380000114440918 a9.0600004196167,9.0600004196167 0 0 0 6.269999980926514,2.509999990463257 c1.1100000143051147,0 2.1600000858306885,-0.28999999165534973 2.1600000858306885,-1 c0,-1.8700000047683716 -10.859999656677246,0 -10.859999656677246,-7.650000095367432 c0,-3.299999952316284 2.75,-6.449999809265137 8.09000015258789,-6.449999809265137 a12.850000381469727,12.850000381469727 0 0 1 8.260000228881836,2.7200000286102295 L39.54999923706055,50.400001525878906 a9.90999984741211,9.90999984741211 0 0 0 -5.71999979019165,-1.9299999475479126 c-1.1699999570846558,0 -1.4900000095367432,0.3799999952316284 -1.4900000095367432,0.8799999952316284 c0,1.840000033378601 10.829999923706055,0.25999999046325684 10.829999923706055,7.5 c0,4.289999961853027 -3.180000066757202,6.769999980926514 -8.40999984741211,6.769999980926514 C30.619998931884766,63.62000274658203 27.78000259399414,62.400001525878906 25.70999526977539,60.529998779296875 z" id="svg_10"/><path class="cls-2" d="M45.09000015258789,63.269996643066406 V43.79999923706055 H55.47999954223633 c4.559999942779541,0 7,3 7,6.690000057220459 s-2.450000047683716,6.650000095367432 -7,6.650000095367432 H50.9900016784668 v6.130000114440918 zM56.499996185302734,50.4900016784668 c0,-1.0499999523162842 -0.7799999713897705,-1.5499999523162842 -1.7799999713897705,-1.5499999523162842 H50.9900016784668 V52 H54.71999740600586 C55.71999740600586,52 56.499996185302734,51.51000213623047 56.499996185302734,50.4900016784668 z" id="svg_11"/><path class="cls-2" d="M63.3599967956543,53.55000305175781 c0,-6 4.639999866485596,-10.069999694824219 10.649999618530273,-10.069999694824219 s10.65999984741211,4.090000152587891 10.65999984741211,10.069999694824219 s-4.639999866485596,10.069999694824219 -10.65999984741211,10.069999694824219 S63.3599967956543,59.540000915527344 63.3599967956543,53.55000305175781 zm15.319999694824219,0 a4.670000076293945,4.670000076293945 0 1 0 -4.670000076293945,4.880000114440918 A4.599999904632568,4.599999904632568 0 0 0 78.67999649047852,53.55000305175781 z" id="svg_12"/><path class="cls-2" d="M97.47999954223633,63.269996643066406 l-2.690000057220459,-6.130000114440918 H92.61999893188477 v6.130000114440918 h-5.900000095367432 V43.79999923706055 h10.399999618530273 c4.550000190734863,0 7,3 7,6.690000057220459 a6.260000228881836,6.260000228881836 0 0 1 -3.5,5.889999866485596 l3.5299999713897705,6.889999866485596 zm0.699999988079071,-12.8100004196167 c0,-1.0499999523162842 -0.9399999976158142,-1.5199999809265137 -1.9299999475479126,-1.5199999809265137 H92.61999893188477 V52 h3.5899999141693115 C97.23999404907227,52 98.17999649047852,51.540000915527344 98.17999649047852,50.459999084472656 z" id="svg_13"/><path class="cls-2" d="M110.44000625610352,63.269996643066406 V48.939998626708984 h-5.230000019073486 V43.79999923706055 h16.31999969482422 v5.139999866485596 h-5.199999809265137 V63.269996643066406 z" id="svg_14"/></g></svg>